<?xml version="1.0" encoding="UTF-8"?>
<svg id="Layer_1" xmlns="http://www.w3.org/2000/svg" baseProfile="tiny" version="1.2" viewBox="0 0 642 186">
  <!-- Generator: Adobe Illustrator 29.5.1, SVG Export Plug-In . SVG Version: 2.1.0 Build 141)  -->
  <path d="M322.06,60.55c0-13.79-7.47-16.15-18.5-16.15h-21.1v32.29h21.1c11.03,0,18.5-2.35,18.5-16.15Z" fill="none"/>
  <path d="M516.39,110.11h-21.1v32.29h21.1c11.03,0,18.5-2.35,18.5-16.15s-7.47-16.15-18.5-16.15Z" fill="none"/>
  <path d="M460.81,126.18c0-11.52-5.84-16.88-21.1-16.88s-21.1,5.27-21.1,16.88,5.92,17.04,21.1,17.04,21.1-5.44,21.1-17.04Z" fill="none"/>
  <path d="M172.8,93.49c0-34.01-27.57-61.58-61.58-61.58v123.17c34.01,0,61.58-27.57,61.58-61.58,0,0,0,0,0,0s0,0,0,0Z" fill="#01cd74"/>
  <path d="M234.38,59.93v-28.01c-34.01,0-61.58,27.57-61.58,61.58,0,0,0,0,0,0s0,0,0,0c0,34.01,27.57,61.58,61.58,61.58v-28.01c-18.51,0-33.57-15.06-33.57-33.57s15.06-33.57,33.57-33.57Z" fill="#01cd74"/>
  <path d="M336.67,60.55c0-19.31-12.9-28.4-27.59-28.4h-41.22v56.79h41.22c14.69,0,27.59-9.09,27.59-28.4ZM282.47,76.7v-32.29h21.1c11.03,0,18.5,2.35,18.5,16.15s-7.47,16.15-18.5,16.15h-21.1Z" fill="#01cd74"/>
  <polygon points="343.97 56.49 356.31 56.49 357.44 30.53 342.84 30.53 343.97 56.49" fill="#01cd74"/>
  <path d="M302.75,155.47c22.64,0,34-8.68,35.46-25.15h-14.85c-1.38,9.25-8.52,12.9-20.61,12.9-14.77,0-21.1-5.36-21.1-17.04s6.25-16.88,21.1-16.88c12.17,0,19.23,3.57,20.61,12.74h14.85c-1.46-16.39-12.82-24.99-35.46-24.99-24.99,0-35.7,10.3-35.7,29.13s10.71,29.29,35.7,29.29Z" fill="#01cd74"/>
  <polygon points="343.49 97.86 343.49 154.66 401.91 154.66 401.91 142.41 358.09 142.41 358.09 97.86 343.49 97.86" fill="#01cd74"/>
  <path d="M475.42,126.18c0-18.74-10.79-29.13-35.7-29.13s-35.7,10.3-35.7,29.13,10.71,29.29,35.7,29.29,35.7-10.47,35.7-29.29ZM418.62,126.18c0-11.6,5.84-16.88,21.1-16.88s21.1,5.35,21.1,16.88-5.92,17.04-21.1,17.04-21.1-5.36-21.1-17.04Z" fill="#01cd74"/>
  <path d="M549.5,126.26c0-19.31-12.9-28.4-27.59-28.4h-41.22v56.8h41.22c14.69,0,27.59-9.09,27.59-28.4ZM516.39,142.41h-21.1v-32.29h21.1c11.03,0,18.5,2.35,18.5,16.15s-7.47,16.15-18.5,16.15Z" fill="#01cd74"/>
  <polygon points="554.77 154.66 614.82 154.66 614.82 143.06 569.38 143.06 569.38 131.54 614.82 131.54 614.82 120.99 569.38 120.99 569.38 109.47 614.82 109.47 614.82 97.86 554.77 97.86 554.77 154.66" fill="#01cd74"/>
</svg>