<?xml version="1.0" encoding="UTF-8"?>
<svg id="Layer_1" xmlns="http://www.w3.org/2000/svg" baseProfile="tiny" version="1.2" viewBox="0 0 48 48">
  <!-- Generator: Adobe Illustrator 29.5.1, SVG Export Plug-In . SVG Version: 2.1.0 Build 141)  -->
  <path d="M15.48,13.97c4.37,0,7.92-3.55,7.92-7.92,0-.21,0-.43-.03-.64-.09-1.12-.42-2.2-.95-3.17-1.22.06-2.42.23-3.58.49.79.8,1.27,1.86,1.35,2.99,0,.11.01.22.01.33,0,2.61-2.12,4.73-4.73,4.73-1.3,0-2.47-.52-3.32-1.37-.78-.77-1.29-1.81-1.38-2.97-.96.72-1.87,1.52-2.71,2.4.4,1.05,1.01,2,1.78,2.79,1.44,1.46,3.43,2.36,5.63,2.36" fill="#8d785f"/>
  <path d="M15.19,7.5c.98,0,1.78-.8,1.78-1.78s-.8-1.78-1.78-1.78-1.78.8-1.78,1.78.8,1.78,1.78,1.78" fill="#8d785f"/>
  <path d="M4.88,13.11c-.03.06-.07.12-.1.18-1.76,3.17-2.68,6.74-2.68,10.39,0,5.35,1.98,10.47,5.58,14.43,2.71,2.98,6.17,5.12,9.98,6.21,1.04.3,2.11.52,3.2.66v-14.15h3.81v7.66c7.67-.57,13.74-6.99,13.74-14.81,0-2.37-.57-4.73-1.66-6.83-.93-1.8-2.25-3.41-3.82-4.69-.31,1.11-.69,2.2-1.14,3.27,2.17,2.17,3.43,5.15,3.43,8.25,0,4.94-3.09,9.17-7.44,10.86v-3.96c.5-.31.97-.68,1.38-1.09h0c.26-.25.5-.53.72-.82.98-1.29,1.53-2.84,1.59-4.48,0-.08,0-.15,0-.23,0-.02,0-.04,0-.06,0-.69-.09-1.37-.26-2.01,0-.02-.01-.05-.02-.07,0-.03-.02-.07-.03-.1-.61-2.14-2.11-4.02-4.28-5.03-.25-.12-.5-.22-.76-.31.42-.43.81-.89,1.18-1.37,1.84-2.42,2.86-5.29,2.99-8.31,0-.21.01-.43.01-.64,0-.96-.09-1.91-.27-2.84-1.14-.36-2.31-.63-3.5-.79.35,1.07.55,2.19.57,3.34,0,.1,0,.2,0,.3,0,2.56-.82,4.99-2.36,7.03-1.12,1.47-2.58,2.67-4.24,3.47-.05.03-.11.05-.17.08-.04.02-.07.03-.11.05l1.19,2.97v.02c.66-.33,1.37-.49,2.11-.49,2.36,0,4.31,1.73,4.67,3.99,0,.03,0,.05.01.08,0,.05.01.1.02.15,0,.04,0,.08.01.12,0,.03,0,.07,0,.1,0,.05,0,.11,0,.16,0,.02,0,.04,0,.06,0,.68-.13,1.38-.44,2.04-.33.7-.81,1.3-1.41,1.76h-5.59v-2.87h0c0-3.35-2.72-6.07-6.07-6.07s-6.07,2.72-6.07,6.07,2.72,6.07,6.07,6.07h2.87v10.15c-2.89-.99-5.52-2.7-7.61-5.01-3.06-3.37-4.74-7.73-4.74-12.28,0-2.82.64-5.58,1.88-8.07.02-.03.03-.06.05-.09-1.37-.96-2.34-2.4-2.34-2.4ZM14.78,27.62c-1.58,0-2.87-1.29-2.87-2.87s1.29-2.87,2.87-2.87,2.87,1.29,2.87,2.87v2.87h-2.87Z" fill="#8d785f"/>
  <path d="M41.68,12.16c-1.94-3.04-4.6-5.54-7.75-7.28,0,.36,0,.73-.02,1.09-.04.84-.11,1.68-.22,2.5,2.11,1.41,3.92,3.25,5.3,5.41,1.86,2.92,2.85,6.31,2.85,9.8,0,9.7-7.6,17.66-17.16,18.23v3.2c5.32-.27,10.28-2.47,14.07-6.26,4.05-4.05,6.29-9.44,6.29-15.18,0-4.09-1.16-8.08-3.35-11.51" fill="#8d785f"/>
</svg>